<svg width="381" height="417" viewBox="0 0 381 417" fill="none" xmlns="http://www.w3.org/2000/svg">
<path d="M189.76 0.76416C183.584 0.76416 177.407 2.14816 172.623 4.91616L19.87 93.2762C10.3 98.8122 10.3 107.566 19.87 113.102L172.623 201.462C182.193 206.998 197.326 206.998 206.895 201.462L359.648 113.102C369.218 107.567 369.218 98.8122 359.648 93.2772L206.895 4.91716C202.11 2.14716 195.935 0.76416 189.76 0.76416ZM191.62 13.1872C199.603 13.3952 207.164 15.3703 212.814 18.7232C218.715 22.29 222.003 27.095 221.964 32.093C221.925 37.0911 218.561 41.8778 212.605 45.4119C206.649 48.9461 198.582 50.9417 190.159 50.9648C181.736 50.9879 173.638 49.0365 167.627 45.5352C163.075 42.8335 160.005 39.3789 158.818 35.624C157.632 31.8692 158.385 27.9892 160.978 24.4926C163.572 20.996 167.885 18.0458 173.352 16.0286C178.82 14.0114 185.187 13.0214 191.619 13.1882L191.62 13.1872ZM250.05 48.3952C256.329 48.4496 262.442 49.6007 267.624 51.7046C272.807 53.8084 276.83 56.7718 279.191 60.2246C281.552 63.6773 282.147 67.4663 280.9 71.1182C279.653 74.7701 276.62 78.1231 272.18 80.7582C266.188 84.314 258.06 86.3117 249.586 86.3118C241.111 86.312 232.984 84.3145 226.991 80.7589C220.999 77.2033 217.632 72.3807 217.632 67.3522C217.631 62.3236 220.998 57.501 226.99 53.9452C230.013 52.1519 233.611 50.7367 237.572 49.7834C241.533 48.8301 245.776 48.358 250.05 48.3952ZM72.447 83.3752C72.4477 83.3752 72.4483 83.3752 72.449 83.3752C80.4318 83.5828 87.9938 85.5576 93.644 88.9102C99.6362 92.466 103.003 97.2886 103.002 102.317C103.002 107.346 99.6353 112.168 93.6428 115.724C87.6502 119.28 79.5227 121.277 71.0481 121.277C62.5736 121.277 54.4462 119.279 48.454 115.723C43.9014 113.022 40.8305 109.567 39.6437 105.812C38.4569 102.057 39.2096 98.1766 41.8032 94.6797C44.3967 91.1829 48.7101 88.2326 54.1781 86.2153C59.6461 84.1981 66.0135 83.2082 72.446 83.3752H72.447ZM310.35 83.6352C310.351 83.6352 310.351 83.6352 310.352 83.6352C318.335 83.8428 325.897 85.8176 331.547 89.1702C337.496 92.7314 340.824 97.5457 340.805 102.56C340.787 107.574 337.421 112.379 331.446 115.925C325.47 119.47 317.371 121.466 308.921 121.477C300.471 121.488 292.358 119.512 286.357 115.982C281.805 113.28 278.735 109.826 277.548 106.071C276.362 102.316 277.115 98.4359 279.708 94.9393C282.302 91.4426 286.615 88.4925 292.083 86.4753C297.551 84.4582 303.918 83.4682 310.35 83.6352ZM131.32 118.845C137.598 118.9 143.71 120.052 148.892 122.155C154.074 124.259 158.097 127.223 160.457 130.675C162.818 134.128 163.412 137.916 162.165 141.568C160.918 145.219 157.886 148.572 153.447 151.207C150.49 152.995 146.966 154.417 143.077 155.391C139.189 156.366 135.014 156.873 130.793 156.885C126.572 156.897 122.389 156.412 118.485 155.459C114.582 154.506 111.035 153.103 108.05 151.332C105.066 149.561 102.702 147.457 101.095 145.141C99.4891 142.824 98.6721 140.342 98.6916 137.838C98.7111 135.333 99.5667 132.856 101.209 130.548C102.851 128.241 105.248 126.15 108.26 124.395C111.283 122.602 114.881 121.187 118.842 120.233C122.803 119.28 127.046 118.808 131.32 118.845ZM9.67 129.84C3.917 129.685 0.0059967 134.176 0.0059967 142.12V299.816C0.0059967 310.868 7.576 323.979 17.146 329.506L164.076 414.354C173.646 419.88 181.216 415.51 181.216 404.459V246.76C181.216 235.708 173.646 222.6 164.076 217.072L17.146 132.225C14.456 130.67 11.921 129.898 9.67 129.838V129.84ZM370.443 129.842C368.193 129.902 365.66 130.672 362.969 132.227L216.034 217.074C206.464 222.601 198.894 235.712 198.894 246.764V404.464C198.894 415.514 206.464 419.882 216.034 414.354L362.97 329.51C372.54 323.983 380.107 310.874 380.107 299.822V142.122C380.107 134.18 376.197 129.69 370.443 129.844V129.842ZM23.297 151.77C26.7197 151.533 30.6076 152.607 34.5679 154.884C38.5281 157.161 42.4204 160.56 45.8515 164.739C49.2825 168.917 52.1308 173.726 54.1085 178.68C56.0862 183.634 57.1233 188.558 57.115 192.953C57.1185 196.241 56.539 199.16 55.4098 201.545C54.2806 203.929 52.6238 205.732 50.5341 206.851C48.4444 207.969 45.9628 208.38 43.2312 208.061C40.4997 207.743 37.5717 206.7 34.6147 204.993C31.6577 203.285 28.7297 200.947 25.9981 198.112C23.2666 195.277 20.785 192 18.6954 188.469C16.6058 184.938 14.949 181.222 13.8199 177.534C12.6908 173.845 12.1114 170.257 12.115 166.973C12.1068 162.586 13.1356 158.872 15.0982 156.204C17.0607 153.536 19.8882 152.007 23.297 151.77ZM356.817 151.77C360.226 152.006 363.054 153.535 365.017 156.204C366.979 158.872 368.008 162.586 368 166.973C367.993 173.602 365.619 181.324 361.401 188.442C357.182 195.559 351.463 201.491 345.5 204.933C339.538 208.376 333.819 209.048 329.6 206.801C325.381 204.555 323.007 199.574 323 192.953C322.992 188.558 324.029 183.634 326.006 178.68C327.984 173.726 330.832 168.917 334.264 164.739C337.695 160.56 341.587 157.161 345.547 154.884C349.507 152.607 353.395 151.533 356.818 151.77H356.817ZM191.619 154.084C199.601 154.292 207.163 156.267 212.813 159.619C218.714 163.186 222.002 167.991 221.963 172.989C221.924 177.987 218.56 182.774 212.604 186.308C206.648 189.842 198.581 191.838 190.158 191.861C181.735 191.884 173.637 189.932 167.626 186.431C163.073 183.73 160.003 180.275 158.816 176.52C157.629 172.765 158.382 168.885 160.975 165.388C163.569 161.891 167.882 158.941 173.35 156.923C178.818 154.906 185.186 153.916 191.618 154.083L191.619 154.084ZM135.296 216.434C138.719 216.197 142.607 217.271 146.567 219.548C150.527 221.825 154.419 225.224 157.85 229.403C161.282 233.581 164.13 238.39 166.108 243.344C168.085 248.298 169.122 253.222 169.114 257.617C169.117 260.905 168.538 263.824 167.409 266.209C166.28 268.593 164.623 270.396 162.533 271.515C160.443 272.633 157.962 273.044 155.23 272.725C152.499 272.407 149.571 271.364 146.614 269.657C143.657 267.949 140.729 265.611 137.997 262.776C135.266 259.941 132.784 256.664 130.694 253.133C128.605 249.602 126.948 245.886 125.819 242.198C124.69 238.509 124.11 234.921 124.114 231.637C124.106 227.25 125.135 223.536 127.097 220.868C129.06 218.2 131.887 216.671 135.296 216.434ZM244.816 216.434C248.225 216.67 251.053 218.199 253.016 220.867C254.979 223.536 256.008 227.25 256 231.637C255.993 238.266 253.619 245.988 249.401 253.106C245.182 260.223 239.463 266.155 233.5 269.597C227.538 273.04 221.819 273.712 217.6 271.465C213.381 269.219 211.007 264.238 211 257.617C210.992 253.222 212.029 248.298 214.006 243.344C215.984 238.39 218.832 233.581 222.264 229.403C225.695 225.224 229.587 221.825 233.547 219.548C237.507 217.271 241.395 216.197 244.818 216.434H244.816ZM79.296 245.1C82.7187 244.863 86.6066 245.937 90.5669 248.214C94.5271 250.491 98.4194 253.89 101.85 258.069C105.282 262.247 108.13 267.056 110.108 272.01C112.085 276.964 113.122 281.888 113.114 286.283C113.107 292.904 110.733 297.885 106.514 300.131C102.295 302.378 96.5764 301.706 90.6137 298.263C84.6509 294.821 78.932 288.889 74.7133 281.772C70.4946 274.654 68.121 266.932 68.114 260.303C68.1058 255.916 69.1346 252.202 71.0972 249.534C73.0597 246.866 75.8872 245.337 79.296 245.1ZM23.298 274.48C26.7208 274.243 30.6088 275.317 34.5691 277.594C38.5294 279.871 42.4218 283.271 45.8529 287.449C49.284 291.628 52.1322 296.437 54.1099 301.391C56.0875 306.345 57.1245 311.269 57.116 315.664C57.1195 318.952 56.54 321.871 55.4108 324.256C54.2816 326.64 52.6248 328.443 50.5351 329.562C48.4454 330.68 45.9638 331.091 43.2322 330.772C40.5007 330.454 37.5727 329.411 34.6157 327.704C31.6587 325.996 28.7307 323.658 25.9991 320.823C23.2676 317.988 20.786 314.711 18.6964 311.18C16.6068 307.649 14.95 303.933 13.8209 300.245C12.6918 296.556 12.1124 292.968 12.116 289.684C12.1077 285.297 13.1364 281.583 15.0989 278.914C17.0615 276.246 19.889 274.717 23.298 274.48ZM356.818 274.48C360.227 274.717 363.054 276.246 365.017 278.914C366.98 281.583 368.008 285.297 368 289.684C367.993 296.313 365.619 304.035 361.401 311.153C357.182 318.27 351.463 324.202 345.5 327.644C339.538 331.087 333.819 331.759 329.6 329.512C325.381 327.266 323.007 322.285 323 315.664C322.992 311.269 324.028 306.345 326.006 301.391C327.984 296.437 330.832 291.628 334.263 287.449C337.694 283.271 341.587 279.871 345.547 277.594C349.507 275.317 353.395 274.243 356.818 274.48ZM135.298 339.143C138.721 338.906 142.609 339.98 146.569 342.257C150.529 344.534 154.421 347.933 157.852 352.112C161.284 356.29 164.132 361.099 166.11 366.053C168.087 371.007 169.124 375.931 169.116 380.326C169.119 383.614 168.54 386.533 167.411 388.918C166.282 391.302 164.625 393.105 162.535 394.224C160.445 395.342 157.964 395.753 155.232 395.434C152.501 395.116 149.573 394.073 146.616 392.366C143.659 390.658 140.731 388.32 137.999 385.485C135.268 382.65 132.786 379.373 130.696 375.842C128.607 372.311 126.95 368.595 125.821 364.907C124.692 361.218 124.112 357.63 124.116 354.346C124.108 349.959 125.137 346.245 127.099 343.577C129.062 340.909 131.889 339.38 135.298 339.143ZM244.818 339.143C248.227 339.38 251.054 340.909 253.017 343.577C254.979 346.245 256.008 349.959 256 354.346C255.993 360.975 253.619 368.697 249.401 375.815C245.182 382.932 239.463 388.864 233.5 392.306C227.538 395.749 221.819 396.421 217.6 394.174C213.381 391.928 211.007 386.947 211 380.326C210.992 375.931 212.029 371.007 214.006 366.053C215.984 361.099 218.832 356.29 222.264 352.112C225.695 347.933 229.587 344.534 233.547 342.257C237.507 339.98 241.395 338.906 244.818 339.143Z" fill="white"/>
</svg>
